<svg width="238" height="412" viewBox="0 0 238 412" fill="none" xmlns="http://www.w3.org/2000/svg">
<path d="M60.8973 36.2356L99.3219 14.2697C101.782 12.8634 104.802 12.8634 107.263 14.2697L199.838 67.1918C204.822 70.0409 207.897 75.3416 207.897 81.0823V406" stroke="#CBCBCB" stroke-width="8"/>
<rect x="177.897" y="405" width="59" height="7" rx="3" fill="#AFB9C5"/>
<path d="M25.3961 25.3345C38.2834 12.4472 59.1778 12.4472 72.0651 25.3345C84.9524 38.2218 84.9524 59.1163 72.0651 72.0036L52.2661 91.8026L5.59708 45.1335L25.3961 25.3345Z" fill="#C5CFD6"/>
<path fill-rule="evenodd" clip-rule="evenodd" d="M25.1254 72.5269C38.0127 85.4142 50.5177 93.8036 53.0561 91.2652C55.5945 88.7268 47.205 76.2218 34.3177 63.3345C21.4304 50.4472 8.92543 42.0578 6.38702 44.5962C3.84861 47.1346 12.238 59.6396 25.1254 72.5269Z" fill="#F2F2F2"/>
</svg>
