<svg width="111" height="282" viewBox="0 0 111 282" fill="none" xmlns="http://www.w3.org/2000/svg">
<path fill-rule="evenodd" clip-rule="evenodd" d="M16.3809 0.208187C25.2139 21.1972 40.2292 35.7805 48.1819 57.6049C52.8978 70.5474 54.8636 84.6195 54.9828 99.032C55.0476 106.86 54.9113 114.694 54.8746 122.522C54.839 130.156 54.6315 137.741 53.9835 145.327C53.3324 152.952 52.6033 160.487 52.2817 168.159C52.0314 174.137 51.9171 181.091 49.8906 186.544C48.2792 190.881 44.1835 191.516 43.0967 186.256C42.4928 183.333 42.5689 180.068 42.6355 177.063C42.721 173.208 42.9452 169.359 43.0595 165.504C43.5192 150.036 42.9233 134.566 43.2348 119.092C43.5391 103.973 45.4824 88.8711 43.3321 73.8534C41.5565 61.4519 37.0455 50.8025 31.8615 40.5932C26.8739 30.7708 21.4455 21.1872 18.075 10.0144C17.1072 6.8056 16.359 3.48051 16 0.0301404C16.1569 -0.0427295 16.2839 0.0164997 16.3809 0.208187Z" fill="#C1DEE2"/>
<path fill-rule="evenodd" clip-rule="evenodd" d="M13.9736 41.617C15.7227 42.88 16.7 44.7276 17.8822 46.5505C19.3524 48.817 21.0808 50.8631 22.5506 53.1311C25.6153 57.8596 28.3079 62.8785 31.1016 67.7986C36.4056 77.1374 40.4326 87.0908 42.4272 97.8949C44.4946 109.092 45.0521 120.648 45.9193 132.012C46.8391 144.056 47.7654 156.188 47.8872 168.279C47.9417 173.696 48.2345 179.446 47.5842 184.825C47.1793 188.173 45.6682 191.027 42.2614 191C35.0249 190.942 31.6275 182.927 30.2081 176.354C28.1188 166.674 27.7019 156.393 28.0327 146.494C28.4323 134.558 30.5039 122.802 31.4004 110.912C32.35 98.3248 31.8136 85.9602 27.4862 74.1089C25.2999 68.1198 22.7626 62.2743 20.4842 56.325C19.514 53.792 18.7194 51.19 17.409 48.8313C15.9512 46.2076 14.1416 43.8259 13 41C13.3244 41.2059 13.6492 41.4114 13.9736 41.617Z" fill="#89C5CC"/>
<path fill-rule="evenodd" clip-rule="evenodd" d="M97.3341 16.5177C97.556 16.3452 97.7782 16.1728 98 16C97.3609 18.6927 96.2066 20.8799 95.3242 23.3413C94.531 25.5541 94.1289 28.0582 93.5947 30.477C92.3401 36.1578 90.8904 41.7105 89.7055 47.4397C87.3599 58.7768 87.8035 70.9902 89.3419 83.5682C90.7948 95.4496 93.0925 107.313 94.1873 119.192C95.0949 129.043 95.485 139.202 94.6193 148.601C94.031 154.984 92.1026 162.606 86.8481 161.962C84.3745 161.659 83.0841 158.681 82.5642 155.32C81.7291 149.922 81.5543 144.246 81.2288 138.878C80.5024 126.896 80.3576 114.951 80.2142 103.092C80.0784 91.904 79.7045 80.4938 80.4521 69.5873C81.1732 59.0631 83.4285 49.5797 86.6531 40.8297C88.3515 36.2198 89.9697 31.5021 91.8779 27.1084C92.793 25.001 93.911 23.1388 94.8265 21.033C95.5627 19.3392 96.1483 17.6011 97.3341 16.5177Z" fill="#C1DEE2"/>
<path fill-rule="evenodd" clip-rule="evenodd" d="M16.2088 76.3018C17.1657 74.6953 19.2721 79.9934 19.5926 80.6598C19.4571 80.3283 19.3209 79.9973 19.1836 79.6666C21.083 82.8249 22.8206 86.1127 23.901 89.7342C24.97 93.3191 25.8883 96.9765 26.8914 100.587C28.7736 107.361 31.2017 113.943 32.907 120.778C34.5686 127.438 34.9875 133.986 34.5853 140.875C34.1672 148.035 33.9115 155.306 34.3992 162.462C34.6321 165.88 35.7427 169.064 36.5039 172.354C37.266 175.648 37.8663 178.986 38.7673 182.239C38.9741 181.815 39.0004 183.232 39 183.339C38.9943 184.152 38.8809 184.833 38.6194 185.604C37.9475 187.586 36.6906 189.269 34.778 189.816C31.3215 190.803 28.1122 187.659 26.9976 184.339C25.3986 179.575 24.5174 174.311 23.7554 169.304C23.0568 164.713 22.8914 160.094 23.099 155.44C23.5079 146.261 25.169 137.202 25.6183 128.026C26.1074 118.036 24.128 108.649 22.4708 98.9248C21.6726 94.2392 20.9097 89.5978 19.3563 85.1337C18.7274 83.326 17.9074 81.7307 17.0476 80.0614C16.5584 79.1117 15.5691 77.4176 16.2088 76.3018Z" fill="#C1DEE2"/>
<path fill-rule="evenodd" clip-rule="evenodd" d="M44.2521 60.697C43.8556 72.1418 43.172 83.4998 41.6462 94.8239C40.0889 106.38 38.3003 117.897 36.802 129.463C35.3434 140.722 33.8145 152.168 34.0184 163.585C34.1685 171.993 32.7741 186.219 42.1134 190.369C51.5721 194.572 53.601 176.623 54.2221 170.699C55.4123 159.333 55.027 147.847 54.4494 136.419C53.8564 124.689 52.8664 113.02 51.6395 101.334C50.2768 88.3528 49.2076 75.3135 48.3495 62.2959C47.9249 55.857 47.8203 49.4287 47.9374 42.9882C48.0482 36.9107 47.8173 30.7703 45.6565 25C45.5433 25.0821 45.4308 25.1642 45.3176 25.2459" fill="#69A1AC"/>
<path fill-rule="evenodd" clip-rule="evenodd" d="M93.0827 96.9552C91.3817 99.4333 89.6669 101.887 88.0605 104.512C85.1861 109.209 82.5869 114.432 81.805 121.147C80.1686 135.2 81.4814 150.379 81.7983 164.863C81.8631 167.822 81.4888 170.693 82.6553 173.51C83.713 176.064 85.6905 178.01 87.5755 178C91.6108 177.977 90.9951 168.095 91.0018 163.746C91.0139 156.123 90.1591 148.422 90.2327 140.806C90.3062 133.26 90.765 125.694 91.859 118.528C92.9666 111.275 94.5886 104.309 96.7291 97.8096C97.0262 96.9075 99.1579 89.9375 97.1439 91.1387" fill="#89C5CC"/>
<path fill-rule="evenodd" clip-rule="evenodd" d="M75.2622 22C72.6092 22 72.6254 35.226 72.5456 36.9248C72.2574 43.0554 72.3251 49.1876 72.1428 55.3194C71.7437 68.7008 71.2535 82.1995 69.2435 95.4263C68.1613 102.547 66.9067 109.636 65.5571 116.702C64.2037 123.789 62.387 130.867 61.4966 138.044C60.6417 144.943 61.1247 151.977 61.242 158.91C61.3592 165.885 61.5699 172.874 62.4838 179.788C62.7092 181.494 62.9736 183.195 63.2565 184.891C63.4922 186.305 63.3549 188.058 63.7536 189.401C64.3928 191.552 67.1329 192.256 68.978 191.92C73.9705 191.009 77.1595 184.74 78.865 180.16C81.043 174.311 82.1985 167.967 83.339 161.804C84.6311 154.821 85.3883 147.732 85.7435 140.623C86.4656 126.175 85.5389 111.712 84.504 97.3101C83.9283 89.3007 83.2633 81.3265 82.2458 73.3667C81.2325 65.441 79.9324 57.5505 79.0859 49.6014C78.4709 43.8246 77.8649 38.0401 77.4666 32.2413C77.3713 30.8586 77.2911 22 75.2622 22Z" fill="#69A1AC"/>
<path fill-rule="evenodd" clip-rule="evenodd" d="M71.9408 118.139C71.5084 104.253 65.9265 43.2589 64.6566 26.4671C64.339 22.2642 61.2815 4.76464 60.8849 0C59.8096 1.34674 59.9015 22.3094 59.9133 27.1262C59.9258 31.8908 59.3349 36.5765 59.0308 41.3155C58.721 46.151 51.5723 108.601 50.6446 113.247C48.799 122.491 47.5638 131.976 46.6111 141.428C45.683 150.639 44.2401 160.358 45.482 169.618C45.7675 171.75 46.2192 173.848 46.9547 175.806C47.7493 177.922 48.2939 179.879 48.9317 182.093C49.9581 185.659 51.8149 188.789 54.6679 190.262C60.5173 193.281 63.6583 186.447 65.2505 180.497C67.7934 170.995 69.4256 161.338 70.1908 151.359C71.0374 140.318 72.2871 129.255 71.9408 118.139Z" fill="#D0935A"/>
<rect x="10" y="159" width="91" height="91" rx="2" fill="white"/>
<rect y="169" width="10" height="113" rx="2" fill="#C5CFD6"/>
<rect x="50" y="169" width="10" height="113" rx="2" fill="#C5CFD6"/>
<rect x="101" y="169" width="10" height="113" rx="2" fill="#C5CFD6"/>
</svg>
